<?xml version="1.0" encoding="UTF-8" standalone="no"?>
<svg
   width="396.63202"
   height="811.24249"
   viewBox="0 0 30.581281 62.548742"
   version="1.1"
   id="svg15"
   xmlns="http://www.w3.org/2000/svg"
   xmlns:svg="http://www.w3.org/2000/svg">
  <defs
     id="defs15" />
  <g
     id="layer1">
    <g
       id="g16"
       transform="matrix(0.99999899,0,0,1,-145.85485,-62.003603)">
      <path
         d="m 158.977,66.839 a 5.099,5.099 0 0 1 2.484,-0.622 c 0.934,-0.035 1.727,0.207 2.383,0.622 a 2.995,2.995 0 0 1 1.381,1.864 c 0.381,1.588 0.449,3.453 0.209,5.594 -0.623,5.145 -1.072,9.116 -1.244,11.913 -0.275,3.557 -0.621,10.289 -1.07,20.199 -0.035,1.141 -0.381,2.072 -0.932,2.764 -0.588,0.656 -1.209,1 -1.969,1 -0.795,0.035 -1.416,-0.207 -1.934,-0.76 -0.553,-0.586 -0.863,-1.449 -0.828,-2.59 0,-2.381 0.137,-6.836 0.482,-13.362 -0.172,-0.794 -0.76,-1.105 -1.727,-0.898 -0.482,0.104 -0.828,0.483 -1,1.105 -0.346,6.872 -0.484,11.706 -0.416,14.432 0.035,1.797 0.623,3.213 1.797,4.213 1.07,0.898 2.383,1.312 3.867,1.244 1.484,-0.104 2.762,-0.621 3.832,-1.588 1.174,-1.105 1.795,-2.557 1.865,-4.316 0.207,-6.182 0.656,-12.051 1.381,-17.714 l 1.83,-15.296 c 0.449,-5.317 -0.553,-8.978 -3.039,-10.911 -1.553,-1.174 -3.35,-1.761 -5.422,-1.727 -2.174,0.035 -4.004,0.726 -5.488,2.072 -1.797,1.623 -2.832,3.867 -3.143,6.768 -1.277,12.741 -1.797,27.658 -1.588,44.785 0.068,3.107 1.104,5.455 3.211,7.078 1.863,1.381 4.143,2.037 6.836,1.795 2.693,-0.207 4.973,-1.139 6.836,-2.797 2.107,-1.762 3.143,-4.006 3.178,-6.629 l 0.346,-13.295 c 0.068,-2.037 1.312,-4.418 3.764,-7.181 0,-0.622 -0.242,-1.105 -0.691,-1.45 -0.379,-0.346 -0.932,-0.483 -1.553,-0.518 -3.039,3.073 -4.594,5.802 -4.559,8.183 l -0.275,13.916 c -0.139,1.863 -0.934,3.383 -2.314,4.453 -1.242,0.967 -2.729,1.486 -4.523,1.52 -1.727,0.035 -3.211,-0.379 -4.523,-1.312 -1.416,-0.932 -2.174,-2.348 -2.312,-4.107 -0.311,-3.488 -0.207,-9.945 0.346,-19.406 l 1.553,-22.651 c 0.172,-1.899 0.553,-3.418 1.105,-4.558 0.377,-0.762 1,-1.383 1.864,-1.832 z"
         fill="#666575"
         id="path4" />
      <path
         d="m 157.594,66.977 c 1.209,-1.243 2.693,-1.796 4.523,-1.658 1.865,0.173 3.246,1.001 4.178,2.486 0.484,0.759 0.795,1.692 0.865,2.9 0.033,0.864 0,2.21 -0.174,3.971 l -1.277,12.81 c -0.449,5.214 -0.795,11.601 -1.035,19.128 -0.035,1.209 -0.449,2.176 -1.244,2.9 -0.691,0.656 -1.553,1.037 -2.59,1.105 -0.967,0.104 -1.863,-0.068 -2.555,-0.586 -0.795,-0.52 -1.174,-1.244 -1.209,-2.244 -0.033,-4.49 0.07,-9.014 0.311,-13.605 0.381,-0.276 0.449,-0.588 0.242,-0.933 -0.242,-0.346 -0.586,-0.483 -1.07,-0.483 -0.553,0 -0.898,0.276 -1.035,0.76 -0.174,0.518 0.104,0.759 0.76,0.829 -0.277,6.837 -0.414,11.464 -0.346,13.95 0,1.207 0.518,2.141 1.484,2.762 0.863,0.586 1.969,0.793 3.246,0.689 1.277,-0.104 2.348,-0.551 3.279,-1.277 1.002,-0.828 1.555,-1.863 1.658,-3.176 0.518,-8.666 0.898,-14.606 1.174,-17.713 0.381,-3.937 0.967,-8.494 1.727,-13.743 0.656,-4.281 0.275,-7.527 -1.244,-9.771 -1.414,-2.072 -3.383,-3.073 -5.834,-3.039 -2.521,0.034 -4.523,1.14 -6.008,3.314 -0.727,1.036 -1.244,3.039 -1.658,5.905 -1.312,10.013 -1.865,24.619 -1.727,43.783 0,2.416 0.932,4.246 2.797,5.523 1.658,1.174 3.729,1.727 6.18,1.623 2.418,-0.139 4.455,-0.828 6.182,-2.176 1.934,-1.449 2.9,-3.35 2.969,-5.697 l 0.346,-13.846 c 0,-2.348 1.381,-4.764 4.074,-7.216 0.139,-0.207 0.104,-0.449 -0.137,-0.725 -0.346,-0.311 -0.553,-0.484 -0.691,-0.449 -2.936,3.211 -4.42,6.007 -4.42,8.287 0,8.84 -0.104,13.57 -0.311,14.227 -0.588,2.037 -1.727,3.59 -3.418,4.627 -1.484,0.896 -3.178,1.346 -5.041,1.277 -1.83,-0.068 -3.418,-0.588 -4.766,-1.52 -1.381,-1.035 -2.141,-2.348 -2.244,-3.936 -0.275,-3.902 -0.207,-10.463 0.207,-19.682 0.414,-8.875 1.002,-16.816 1.691,-23.756 0.311,-2.552 1.002,-4.451 2.141,-5.625 z"
         fill="#737da7"
         id="path5" />
      <path
         d="m 169.609,114.869 c -0.137,0.033 -0.24,0.104 -0.309,0.311 l -0.105,0.656 c -0.551,2.037 -1.691,3.59 -3.383,4.66 -1.484,0.934 -3.246,1.348 -5.18,1.277 -1.865,-0.068 -3.486,-0.621 -4.834,-1.553 -1.451,-1.037 -2.279,-2.348 -2.416,-3.902 0,-0.414 -0.104,-0.553 -0.381,-0.553 -0.346,0.035 -0.449,0.242 -0.311,0.656 0.346,2.141 1.381,3.799 3.107,4.938 1.588,1.002 3.418,1.484 5.525,1.348 2.105,-0.104 3.936,-0.727 5.523,-1.934 1.693,-1.277 2.729,-3.004 3.074,-5.145 0.106,-0.519 0.003,-0.794 -0.31,-0.759 z m -12.291,-20.58 -0.518,0.138 -0.277,5.559 c -0.172,3.557 -0.275,6.146 -0.24,7.77 0.033,1.209 0.482,2.141 1.381,2.797 0.828,0.621 1.83,0.863 3.004,0.793 a 5.525,5.525 0 0 0 3.107,-1.174 c 0.967,-0.828 1.52,-1.863 1.658,-3.211 0.033,-0.379 0,-0.553 -0.174,-0.553 -0.207,0 -0.242,0.207 -0.242,0.553 -0.172,1.244 -0.725,2.211 -1.588,2.969 -0.795,0.656 -1.727,1.037 -2.762,1.07 -1.037,0.035 -1.9,-0.24 -2.59,-0.828 -0.76,-0.689 -1.141,-1.621 -1.141,-2.865 z m 1.313,-29.004 c 1.518,-1.036 3.072,-1.45 4.764,-1.208 1.762,0.276 3.039,1.174 3.799,2.728 0.656,1.208 0.932,2.59 0.932,4.178 -0.033,0.311 0.035,0.483 0.277,0.518 0.172,0.035 0.275,-0.172 0.275,-0.622 0,-1.83 -0.379,-3.453 -1.242,-4.903 -0.898,-1.484 -2.211,-2.382 -4.041,-2.658 -1.795,-0.311 -3.557,0.104 -5.213,1.174 -0.242,0.242 -0.311,0.483 -0.174,0.69 0.174,0.241 0.381,0.276 0.623,0.103 z"
         fill="#cccde7"
         id="path6" />
    </g>
    <g
       id="g17"
       transform="matrix(0.99999899,0,0,1,-145.85485,-62.003603)">
      <path
         d="m 146.891,83.792 c -0.242,1.692 0.172,3.177 1.139,4.523 1.002,1.346 2.348,2.106 4.006,2.348 1.691,0.242 3.178,-0.138 4.523,-1.14 1.346,-1.001 2.105,-2.313 2.348,-4.005 0.242,-1.658 -0.139,-3.143 -1.139,-4.489 -1.002,-1.312 -2.348,-2.141 -4.006,-2.348 -1.658,-0.276 -3.143,0.138 -4.488,1.104 -1.348,1.038 -2.141,2.35 -2.383,4.007 z"
         fill="#666575"
         id="path7" />
      <path
         d="m 149.135,80.823 c -1.312,0.726 -2.037,1.727 -2.244,2.97 -0.172,1.312 0.242,2.555 1.277,3.764 1.07,1.277 2.383,2.037 4.006,2.279 1.623,0.242 3.107,-0.104 4.488,-1.036 1.312,-0.898 2.072,-1.968 2.244,-3.28 0.172,-1.243 -0.242,-2.417 -1.312,-3.453 -1.035,-1.036 -2.381,-1.727 -4.039,-1.934 -1.659,-0.242 -3.143,-10e-4 -4.42,0.69 z"
         fill="#d0d1d3"
         id="path8" />
      <path
         d="m 153.383,81.168 c -1.555,-0.242 -2.936,-0.069 -4.145,0.448 -1.209,0.519 -1.898,1.243 -2.037,2.245 -0.139,1.036 0.277,2.003 1.277,3.004 a 6.4,6.4 0 0 0 3.834,1.934 c 1.518,0.207 2.9,-0.035 4.211,-0.76 1.209,-0.69 1.898,-1.52 2.072,-2.555 0.139,-1.001 -0.311,-1.899 -1.346,-2.728 -1.001,-0.828 -2.278,-1.381 -3.866,-1.588 z"
         fill="#ffffff"
         id="path9" />
      <path
         d="m 153.141,82.86 c -0.553,-0.034 -1.105,0.069 -1.555,0.415 -0.45,0.346 -0.725,0.829 -0.828,1.416 -0.068,0.586 0.068,1.105 0.414,1.553 0.346,0.483 0.828,0.726 1.416,0.829 0.553,0.069 1.07,-0.069 1.555,-0.415 0.482,-0.345 0.725,-0.829 0.828,-1.381 0.068,-0.552 -0.07,-1.07 -0.414,-1.588 -0.346,-0.449 -0.83,-0.726 -1.416,-0.829 z"
         id="path10" />
    </g>
    <g
       id="g18"
       transform="matrix(0.99999899,0,0,1,-145.85485,-62.003603)">
      <path
         d="m 167.746,77.992 c -1.691,-0.242 -3.176,0.173 -4.488,1.139 -1.312,1.001 -2.107,2.348 -2.35,4.04 -0.24,1.623 0.139,3.142 1.141,4.489 1.002,1.347 2.312,2.106 4.006,2.348 1.656,0.242 3.141,-0.138 4.488,-1.14 1.346,-1.001 2.141,-2.348 2.348,-3.971 0.242,-1.692 -0.104,-3.177 -1.139,-4.558 -1.002,-1.312 -2.348,-2.106 -4.006,-2.347 z"
         fill="#666575"
         id="path11" />
      <path
         d="m 167.539,79.442 c -1.658,-0.242 -3.143,0.034 -4.455,0.76 -1.277,0.725 -2.002,1.691 -2.176,2.969 -0.205,1.278 0.209,2.555 1.244,3.764 1.035,1.277 2.418,2.002 4.006,2.209 1.623,0.242 3.107,-0.104 4.488,-1.035 1.312,-0.864 2.072,-1.934 2.244,-3.211 0.207,-1.278 -0.242,-2.417 -1.277,-3.522 -1.035,-1.037 -2.383,-1.658 -4.074,-1.934 z"
         fill="#d0d1d3"
         id="path12" />
      <path
         d="m 161.289,83.206 c -0.139,1.001 0.275,2.003 1.242,2.969 1.037,1.036 2.279,1.692 3.764,1.899 1.52,0.208 2.9,-0.034 4.18,-0.759 1.174,-0.656 1.863,-1.485 2.002,-2.521 0.139,-0.932 -0.277,-1.83 -1.277,-2.658 -1.002,-0.829 -2.279,-1.347 -3.799,-1.554 -1.588,-0.242 -2.936,-0.103 -4.109,0.449 -1.208,0.482 -1.864,1.242 -2.003,2.175 z"
         fill="#ffffff"
         id="path13" />
      <path
         d="m 169.1092,85.006512 c 0.068,-0.587 -0.035,-1.105 -0.381,-1.588 -0.344,-0.449 -0.828,-0.725 -1.414,-0.829 -0.588,-0.069 -1.105,0.069 -1.555,0.415 -0.484,0.345 -0.795,0.828 -0.863,1.416 -0.0736,0.552406 0.0754,1.111406 0.414,1.554 0.346,0.483 0.828,0.759 1.381,0.863 0.5632,0.07404 1.13304,-0.07488 1.588,-0.415 0.484,-0.346 0.76,-0.829 0.83,-1.416 z"
         id="path1" />
    </g>
    <g
       id="g19"
       transform="matrix(0.99999899,0,0,1,-145.85485,-62.003603)">
      <path
         d="m 151.275,70.982 c -2.312,0.829 -4.109,2.866 -5.42,6.181 2.727,-2.762 4.938,-4.005 6.732,-3.729 z"
         id="path14" />
      <path
         d="m 168.35631,71.70959 -0.932,2.659 c 1.277,0.035 2.729,0.483 4.385,1.312 1.623,0.829 3.143,1.934 4.627,3.28 -2.209,-3.521 -4.902,-5.939 -8.08,-7.251 z"
         id="path1-3" />
    </g>
  </g>
</svg>
