<?xml version="1.0" encoding="UTF-8" standalone="no"?>
<!-- Created with Inkscape (http://www.inkscape.org/) -->

<svg
   width="134.15585mm"
   height="66.295723mm"
   viewBox="0 0 134.15586 66.295726"
   version="1.1"
   id="svg1"
   xmlns:xlink="http://www.w3.org/1999/xlink"
   xmlns="http://www.w3.org/2000/svg"
   xmlns:svg="http://www.w3.org/2000/svg">
  <defs
     id="defs1">
    <linearGradient
       id="swatch2">
      <stop
         style="stop-color:#272727;stop-opacity:1;"
         offset="0"
         id="stop2" />
    </linearGradient>
    <linearGradient
       xlink:href="#swatch2"
       id="linearGradient2"
       x1="27.819103"
       y1="113.91111"
       x2="138.7623"
       y2="113.91111"
       gradientUnits="userSpaceOnUse" />
    <filter
       style="color-interpolation-filters:sRGB"
       id="filter53"
       x="-0.03229273"
       y="-0.074233601"
       width="1.0959812"
       height="1.2103285">
      <feFlood
         result="flood"
         in="SourceGraphic"
         flood-opacity="0.749020"
         flood-color="rgb(0,0,0)"
         id="feFlood52" />
      <feGaussianBlur
         result="blur"
         in="SourceGraphic"
         stdDeviation="1.500000"
         id="feGaussianBlur52" />
      <feOffset
         result="offset"
         in="blur"
         dx="3.500000"
         dy="3.000000"
         id="feOffset52" />
      <feComposite
         result="comp1"
         operator="in"
         in="flood"
         in2="offset"
         id="feComposite52" />
      <feComposite
         result="comp2"
         operator="over"
         in="SourceGraphic"
         in2="comp1"
         id="feComposite53" />
    </filter>
    <filter
       style="color-interpolation-filters:sRGB"
       id="filter69"
       x="-0.15101431"
       y="-0.18789268"
       width="1.3859255"
       height="1.454074">
      <feFlood
         result="flood"
         in="SourceGraphic"
         flood-opacity="0.749020"
         flood-color="rgb(0,0,0)"
         id="feFlood68" />
      <feGaussianBlur
         result="blur"
         in="SourceGraphic"
         stdDeviation="1.500000"
         id="feGaussianBlur68" />
      <feOffset
         result="offset"
         in="blur"
         dx="2.000000"
         dy="1.500000"
         id="feOffset68" />
      <feComposite
         result="comp1"
         operator="in"
         in="flood"
         in2="offset"
         id="feComposite68" />
      <feComposite
         result="comp2"
         operator="over"
         in="SourceGraphic"
         in2="comp1"
         id="feComposite69" />
    </filter>
  </defs>
  <g
     id="layer1"
     style="display:inline"
     transform="translate(-17.216827,-88.180666)">
    <path
       style="display:inline;fill:url(#swatch2);fill-opacity:1;stroke-width:0.264999;paint-order:stroke fill markers;filter:url(#filter69)"
       d="m 33.220652,128.63442 c -0.07702,0.16124 -0.21017,0.14017 -0.219205,0.23616 -0.009,0.096 0.453718,0.35387 0.4206,0.54789 -0.01764,0.10335 -0.131285,0.12539 -0.170664,0.23553 -0.127009,0.0368 -0.169575,0.19302 -0.224186,0.32635 -0.126235,0.0658 -0.106356,0.25213 -0.153803,0.38619 -0.04942,0.1176 0.0087,0.28151 -0.03104,0.40368 0.05359,0.15651 -0.210996,0.11407 -0.271554,0.21826 -0.06168,0.10613 0.164428,0.37067 0.127177,0.46704 -0.04533,0.11729 -0.09656,0.23301 -0.154224,0.34653 -0.05641,0.11417 -0.02592,0.26037 -0.092,0.37132 0.02454,0.15256 -0.135125,0.23581 -0.216728,0.34951 -0.06394,0.11019 -0.141294,0.21403 -0.222359,0.31966 -0.06375,0.10576 -0.288948,-0.0259 -0.368117,0.0795 -0.218754,-0.11194 -0.241044,0.18933 -0.280842,0.38427 -0.02757,0.13503 0.212298,0.40991 0.174051,0.5026 -0.04689,0.11363 -0.08565,0.23355 -0.135469,0.34731 -0.03981,0.11953 -0.08679,0.2331 -0.138724,0.34637 -0.03836,0.12038 -0.07601,0.24064 -0.130092,0.3543 -0.0247,0.12722 0.401572,0.24608 0.345101,0.35956 0.416214,0.2101 -0.314162,0.10978 -0.487456,0.2985 -0.165883,-0.15821 -0.166657,0.26531 -0.264722,0.41416 -0.02784,0.11808 -0.121384,0.2233 -0.18793,0.33054 -0.04987,0.1191 0.169373,0.29604 0.109772,0.39555 -0.07053,0.11775 -0.440957,0.11602 -0.476769,0.21421 -0.03971,0.10887 -0.0756,0.20387 -0.107609,0.31702 -0.03425,0.10128 -0.100984,0.18116 -0.129894,0.30226 -0.06835,0.0722 -0.121169,0.20341 -0.148807,0.33752 -0.08938,0.0704 -0.07435,0.1227 -0.09702,0.25768 -0.0502,0.004 -0.07932,0.28586 -0.10711,0.45304 -0.05388,0.0916 -0.04531,0.23342 -0.06713,0.34804 -0.02318,0.12176 -0.104867,0.0442 -0.157143,0.12784 -0.05383,0.0861 0.216377,0.25364 0.154142,0.35515 0.251028,0.19643 -0.214337,0.27565 -0.395699,0.37346 -0.107557,0.058 -0.137363,0.14003 -0.187935,0.19622 -0.08111,0.0901 0.149784,0.2011 0.06495,0.28829 0.180823,0.15933 -0.395136,0.1426 -0.55129,0.27265 -0.205879,-0.0515 -0.0725,0.18904 -0.165687,0.26643 0.0019,0.127 -0.320398,-0.1031 -0.435856,-0.0128 -0.221617,-0.18762 -0.21057,0.22583 -0.330296,0.34129 -0.05623,0.10819 0.04932,0.1818 -0.04083,0.27315 0.114095,0.12215 -0.337511,0.1697 -0.482642,0.28653 -0.174949,0.007 -0.02291,0.22541 -0.105692,0.30492 0.05287,0.17177 -0.301096,0.13504 -0.431692,0.20862 -0.118784,0.0669 -0.193766,0.15749 -0.264734,0.22258 -0.08871,0.0814 -0.310344,-0.0802 -0.399865,6.2e-4 -0.239749,-0.14578 -0.299197,0.0932 -0.403996,0.19563 -0.178922,-0.0128 -0.291214,-0.0151 -0.380397,0.0816 -0.2158,-0.0826 -0.252795,0.0933 -0.352272,0.22585 -0.138993,-0.021 -0.213287,-0.0215 -0.303297,0.12575 -0.126413,-0.12401 -0.208972,0.23208 -0.306468,0.44083 -0.07091,-7.9e-4 -0.113119,0.28886 -0.176132,0.43864 -0.02916,0.10488 0.390746,0.26079 0.347627,0.3576 0.407229,0.21418 -0.02952,0.30748 -0.201193,0.42575 0.06616,0.11143 -0.373572,-0.19296 -0.540783,-0.12876 -0.135537,0.052 -0.213845,0.43855 -0.263116,0.48519 -0.07113,0.0673 -0.02955,0.1968 -0.09311,0.27194 0.03732,0.13782 -0.185142,0.13692 -0.28561,0.20125 -0.08371,0.0536 0.09287,0.16594 0.02412,0.22252 -0.04145,0.0341 -0.102256,0.0753 -0.186091,0.11944 -0.08039,0.0459 0.07186,0.13308 -0.04651,0.18482 0.0896,0.11431 -0.390561,0.14503 -0.621717,0.22517 -0.153892,0.0409 -0.381891,0.005 -0.537474,0.0543 -0.230658,-0.0494 -0.146224,0.13783 -0.290388,0.18566 -0.05608,0.1103 -0.360952,0.15478 -0.561229,0.21438 -0.127342,0.0755 -0.249668,0.14393 -0.41082,0.1842 -0.08058,0.0903 -0.197299,0.14392 -0.355427,0.16531 -0.0068,0.0925 -0.03271,0.0781 -0.181101,0.067 -0.102123,-0.008 -0.597643,-0.27587 -0.6349,-0.27136 -0.0984,0.0119 -0.157254,0.0502 -0.246593,0.0723 -0.06253,0.0429 -0.273968,-0.0506 -0.372407,-0.0282 -0.163269,-0.0805 0.18221,0.0903 0.116205,0.12663 -0.07564,0.0416 -0.16052,0.13299 -0.262405,0.13546 0.110579,0.01 0.22023,-0.0944 0.329203,-0.0694 0.121931,-0.0951 0.208955,0.0384 0.329535,0.0839 0.0853,0.0164 0.428837,0.10911 0.549515,0.16407 0.242326,0.0358 0.08212,0.0211 0.131743,0.0455 0.09355,0.0294 0.211208,-0.15716 0.318033,-0.10221 0.122976,-0.20282 0.291502,0.20083 0.43198,0.30818 0.0925,0.0655 0.250633,0.14486 0.322657,0.18224 0.09352,0.0485 0.04439,-0.0511 0.152603,-0.0612 0.0791,-0.007 0.117227,-0.0956 0.224278,-0.12042 0.0579,-0.0973 0.579921,0.0308 0.715744,1.1e-4 0.353738,0.0825 0.0056,-0.0636 0.02701,-0.0698 0.111929,-0.0966 0.195213,-0.14064 0.274052,-0.18398 0.07588,-0.0417 0.186473,-0.0334 0.253676,-0.0572 l 0.361694,-0.12158 0.43474,-0.10715 0.139038,-0.27791 0.402669,-0.22551 0.683769,-0.006 0.03212,-0.27157 0.323386,-0.10047 0.360384,-0.0599 0.691956,0.0327 0.01247,-0.0737 0.613308,-0.0447 c 0.0794,-0.0499 0.131203,-0.12172 0.221308,-0.16672 0.06231,-0.0726 0.149095,-0.40223 0.255756,-0.4454 0.04612,-0.34781 0.08044,-0.1837 0.183631,-0.20682 0.03734,-0.15014 0.695258,-0.018 0.869561,-0.0235 0.375961,0.028 0.23346,0.0603 0.23346,0.0603 0.25594,0.0596 0.09992,0.0272 0.119733,0.0263 0.257681,0.0193 0.364505,-0.0111 0.424346,-0.065 0.05264,-0.0474 0.06193,-0.10642 0.227205,-0.19282 0.137881,-0.0721 0.258303,-0.13118 0.35164,-0.19555 0.104873,-0.0555 0.471291,-0.0761 0.548667,-0.13751 0.377088,-0.0101 0.371002,-0.0758 0.389876,-0.14738 0.02092,-0.0793 0.09239,-0.21049 0.249226,-0.28109 0.102346,-0.0461 0.653686,-0.0483 0.746148,-0.0911 0.454834,0.0417 0.119458,0.0605 0.119458,0.0605 0.178026,0.0334 0.17834,-0.0187 0.21802,-0.0481 0.212297,-0.0671 0.136868,-0.24767 0.180863,-0.38049 -0.0047,-0.0757 0.01413,-0.17672 0.06042,-0.23234 0.05341,-0.0642 0.303665,0.003 0.414145,-0.0628 0.05947,-0.0355 0.115324,-0.0804 0.132055,-0.14481 0.01673,-0.0644 -0.0953,-0.32097 -0.03336,-0.35198 0.09796,-0.049 0.216776,-0.051 0.346136,-0.0363 0.129359,0.0147 0.264817,0.0412 0.358829,-0.0151 0.320096,-0.19159 0.442479,-0.41807 0.548686,-0.496 0.398084,-0.44557 -0.669999,0.28503 0.1324,-0.10108 0,0 0.03867,0.0191 0.03867,0.0191 0.03867,0.0191 -0.05315,-0.0399 -0.05315,-0.0399 -0.05315,-0.0399 0.102383,0.0511 0.102383,0.0511 0.109017,-0.0525 0.273161,-0.0966 0.462686,-0.19146 0.09958,-0.0499 0.383538,-0.0132 0.47434,-0.0555 0.244667,0.0558 0.101536,-0.054 0.147027,-0.0816 0.08829,-0.0571 0.598155,-0.0785 0.672831,-0.14207 0.522027,-0.0415 0.04997,-0.14463 0.03395,-0.2469 -0.0078,-0.0496 -0.103051,-0.16766 -0.03537,-0.21578 0.08834,-0.0628 0.16808,-0.13847 0.261517,-0.20932 0.08277,-0.08 0.18807,-0.14954 0.286139,-0.22754 0.09406,-0.08 0.237194,-0.13198 0.336112,-0.21396 0.137048,-0.0539 0.174363,-0.17651 0.26792,-0.25982 0.0823,-0.10315 0.179577,-0.22331 0.275481,-0.31238 0.07568,-0.13249 0.11097,-0.30307 0.200414,-0.38427 0.02252,-0.22077 0.20945,-0.15008 0.309063,-0.21315 0.11528,-0.059 0.178366,-0.13316 0.267072,-0.19618 0.09139,-0.0649 0.143555,-0.2041 0.217283,-0.28955 0.07154,-0.0829 0.105165,-0.18266 0.17155,-0.25872 0.06639,-0.0761 0.497468,-0.0962 0.573499,-0.17503 0.06269,-0.065 0.04276,-0.16364 0.04046,-0.21493 -0.0023,-0.0513 0.189262,0.0261 0.255673,-0.0351 0.07196,-0.0663 0.0232,-0.29927 0.07988,-0.38008 -0.0642,-0.22511 0.471164,-0.0431 0.519684,-0.10564 0.43546,0.012 0.09496,-0.15581 0.103244,-0.24103 0.02327,-0.0898 -0.0015,-0.19109 0.0053,-0.28581 0.0063,-0.0873 0.05133,-0.16897 0.115885,-0.24709 0.07812,-0.0945 0.154259,-0.19057 0.232558,-0.28244 0.07592,-0.0947 0.212832,-0.14887 0.290676,-0.23864 0.132233,-0.0539 0.159658,-0.16841 0.233387,-0.25531 0.08551,-0.0841 0.140076,-0.54752 0.213808,-0.63779 0.0046,-0.3871 0.0354,-0.036 0.05105,-0.0547 0.08393,-0.0931 0.06396,-0.27424 0.141061,-0.35723 -0.0083,-0.18418 0.228664,-0.14518 0.317811,-0.22436 0.133752,-0.0405 0.329488,-0.0803 0.403957,-0.15268 0.245483,-0.0105 0.09047,-0.17713 0.134711,-0.26496 0.014,-0.12547 0.068,-0.27295 0.120945,-0.38537 0.04707,-0.0999 0.09783,-0.25701 0.155472,-0.37769"
       id="path7"
       transform="matrix(1.0111788,0,0,1,2.3948238,1.5820943)" />
    <path
       style="fill:url(#linearGradient2);fill-opacity:1;stroke-width:0.264999;paint-order:stroke fill markers;filter:url(#filter53)"
       id="rect1"
       width="108.98962"
       height="46.57674"
       x="29.812784"
       y="90.501442"
       d="m 45.729898,90.393593 0.765032,-0.104431 1.117175,0.147456 1.297831,9e-4 0.880632,-0.01966 0.953304,-0.006 0.982211,0.131959 0.648217,-0.0084 1.417366,0.413041 0.866901,0.0018 1.087382,0.253256 0.867694,0.08596 1.024888,0.101432 0.831713,-0.443944 0.940289,-0.02382 1.134688,0.37434 1.436432,0.01132 0.526651,0.07441 1.783321,0.05465 1.368411,0.578974 -0.01465,-0.159851 1.244175,0.132186 0.764411,-0.01063 1.14625,0.511384 1.603473,-0.05454 -0.738913,-0.06947 1.674842,-0.236634 0.613514,-0.147697 0.998512,-0.318829 1.602291,-0.121174 1.160439,-0.02769 0.985711,-0.132039 0.783502,0.468338 0.500379,0.03417 1.670378,0.01701 0.762842,0.38472 0.467911,-0.265235 1.139716,0.195913 1.424404,-0.720418 0.02952,0.007 1.810769,0.434017 2.502033,-0.07556 0.587769,0.04175 -0.04999,-0.0618 0.953124,-0.07304 0.50288,-0.232246 1.443154,-0.145937 1.886094,-0.449136 0.299402,-0.502168 0.784295,-0.09258 1.157097,-0.150541 1.334552,0.0276 1.29363,0.494637 0.189434,0.22223 1.496833,-0.07681 0.621172,-0.04647 1.34279,0.151338 0.10368,-0.02888 1.41398,0.203218 0.40577,0.0119 1.49817,0.06235 0.66288,-0.04887 1.76272,-0.207357 0.79988,0.112501 -0.5904,0.04229 2.20018,-0.05653 1.29521,0.05087 0.68999,0.499225 0.804,-0.493415 1.27366,0.0033 0.53469,-0.118291 1.60031,-0.0025 0.95359,0.441402 0.89445,-0.714518 1.87603,-0.143989 0.0702,0.339091 1.09588,-0.22589 0.44039,-0.771933 1.47758,0.630818 c 0.33839,-0.002 0.0851,0.24831 0.41823,0.267181 -0.0732,0.270944 1.34076,-0.0057 1.8463,0.06999 0.53762,-0.05429 0.01,0.02614 0.23123,0.06867 0.0189,0.04214 1.09811,0.604794 1.54319,0.729647 0.39944,0.46892 1.45381,-0.01722 1.65904,0.04833 1.04181,-0.136683 -0.0815,-0.129811 -0.0784,-0.128797 0.25597,-0.02176 2.5574,0.206646 2.88653,0.337682 1.87693,-0.02417 0.1941,0.130615 0.1941,0.130615 0.19409,0.130615 -0.34958,0.253097 -0.34958,0.253097 0.008,0.395431 0.85671,0.01773 1.18403,0.18129 0.46388,-0.124391 0.74808,0.255855 1.02817,0.429253 0.42523,0.110576 0.99712,0.617309 1.24795,0.80828 0.58616,0.363157 -1.12159,-0.08679 -0.99962,0.01651 -0.79478,0.206617 1.20842,0.821267 1.69733,1.425071 0.32453,0.06674 1.02317,0.595059 1.23455,0.913758 0.69641,0.198189 -0.78295,0.758954 -0.66568,0.96869 -0.85695,0.68184 -0.26776,0.61957 -0.0912,0.960071 -0.44138,0.325454 0.21684,0.830253 0.4189,1.214608 -0.0276,0.364681 0.18073,0.480809 0.33123,0.764602 0.0481,0.2305 0.69914,0.18253 0.86421,0.50176 0.54107,-0.10627 0.41616,0.38828 0.55463,0.76077 0.22407,0.0632 0.44893,1.30841 0.54381,1.72335 0.23067,0.68225 -0.37851,0.26651 -0.35557,0.39344 -0.3687,0.3731 0.0441,0.75356 0.12908,1.08515 -0.0271,0.36172 0.11079,0.91122 0.19853,1.21919 0.0877,0.30772 0.0571,0.34579 0.0571,0.69274 l 0.47375,0.98851 1.09479,1.40102 0.16976,1.06301 0.26104,1.34172 -0.21815,1.08413 -0.59406,0.40574 -1.17788,0.79688 -0.96087,0.81834 0.14492,0.97835 -0.29504,1.23869 1.32435,1.01987 -0.0388,0.71027 0.13343,0.85719 -0.19045,1.1074 -0.0578,0.6712 c 0.004,0.35 -0.39703,0.69706 -0.41389,1.04087 -0.41089,0.33001 -0.0248,0.72349 -0.0587,1.04727 -0.0159,0.3758 0.47112,0.52292 0.423,0.82593 0.48131,0.30086 -0.56769,0.9727 -0.65874,1.35521 -0.48189,0.41683 -0.15568,0.50026 -0.21825,0.72172 -0.12619,0.34262 -0.84831,0.87796 -0.94554,1.16164 -0.72467,0.44041 0.0165,0.27835 -0.0353,0.41837 0.002,0.30202 1.06843,1.3678 0.94011,1.66295 1.1888,1.02218 -0.31125,0.62554 -0.44295,0.87531 -0.21565,0.37532 -0.0438,0.49437 -0.20459,0.7477 0.0242,0.31919 -0.36629,0.65748 -0.62984,0.98208 -0.14131,0.26505 -0.3864,0.55596 -0.66438,0.83297 -0.15358,0.23783 -0.87141,0.55437 -1.17815,0.80449 -0.49461,0.17268 -0.34682,0.29134 -0.54759,0.43794 -0.23821,0.18757 -0.50284,0.35298 -0.79927,0.53827 -0.23432,0.14122 -1.12973,0.31467 -1.44643,0.48354 -0.67153,0.0292 -0.92492,0.21556 -1.07627,0.29202 -0.73195,0.11169 -0.16094,0.0999 -0.26813,0.1527 -0.25201,0.14262 -1.2605,-0.0387 -1.55921,0.0943 -0.80607,-0.26339 0.58112,0.12285 0.43364,0.19055 0.37223,0.22158 -1.9186,0.95703 -2.48633,1.15969 -0.86068,0.49414 0.3035,-0.0302 0.3035,-0.0302 -0.13771,0.12734 -1.56391,0.48743 -1.96275,0.54991 -0.81073,0.24473 -0.45832,-0.38076 -0.53687,-0.37436 -0.6408,-0.37598 -0.39396,0.37824 -0.61857,0.43184 -0.20667,0.0493 -0.0782,-0.14893 -0.5999,-0.14893 l -1.09264,-0.0157 -1.5567,0.0228 0.50857,-0.002 -1.73483,0.0428 -0.39489,0.002 -1.72095,-0.20987 -0.38839,0.0178 -1.61935,-0.17216 -0.61009,0.006 -1.48235,0.23036 -2.01626,-0.0199 -0.032,-0.31797 -0.7918,-0.2688 -1.45988,-0.086 -0.55704,0.12566 -1.63237,0.0673 -1.1091,0.046 0.056,0.26759 -2.14949,-0.0795 0.15432,-0.0395 -1.27869,0.19216 -1.02431,0.38482 -2.142046,0.0617 0.622986,0.50094 -0.842278,0.18907 -2.340375,0.22884 -0.589252,-0.0397 -1.470406,0.0216 0.268715,-0.40779 -1.4911,-0.24541 -1.097234,0.19173 -1.683601,0.24108 -0.105813,-0.13882 -2.024556,0.0162 0.03734,-0.40149 -1.686533,-0.0193 0.568527,-0.004 -1.645238,0.0168 -1.579594,-0.0866 -0.631915,0.0618 -0.421003,-0.0237 -1.173105,-0.014 -1.569166,0.41244 -0.888944,-0.23281 -1.000037,0.0879 -1.121727,0.14103 -0.5863,0.20161 -1.953838,0.34117 -0.414483,-0.12481 -1.068875,-0.18014 -0.744637,-0.43184 -1.105618,-0.0386 -0.836974,0.0742 -1.286995,0.0254 -0.5906,-0.40901 -1.380669,0.10878 -1.708324,-0.0812 -0.245109,-0.41033 -0.538013,-0.373 -1.032597,0.0411 -0.829165,0.002 -1.232371,-0.0132 -1.343756,0.10842 -0.918779,0.14115 -1.192225,0.14469 -0.535966,0.2036 -1.312812,0.32132 -0.985883,-0.19548 -1.235992,-0.0313 -0.445326,-0.0186 -1.810743,-0.11165 -0.52415,-0.0157 -0.66039,0.0421 -1.324215,-0.0559 -1.195518,0.001 0.307188,-0.004 -2.529974,-0.15218 0.480369,0.0798 c -0.37695,5.1e-4 -0.70185,0.0143 -1.070581,-0.006 -0.337711,0.003 -0.72745,-0.0544 -1.103828,-0.0977 -0.333599,-0.0437 -1.394441,0.05 -1.757918,-0.014 -0.800612,0.12049 -0.391562,0.30476 -0.537241,0.27527 -0.447881,0.2875 -0.689975,0.0924 -1.028017,2.3e-4 -0.374371,0.14166 -2.225702,-0.0526 -2.588943,-0.18297 -1.474365,0.16821 0.151612,0.0194 0.151612,0.0194 -0.1514,-0.0894 -0.719505,-0.33019 -1.005248,-0.45757 -0.419519,-0.2357 -0.848832,-0.27468 -1.127193,-0.42593 -0.526611,-0.14282 0.280959,-0.816 0.03596,-0.97472 0.38792,-0.78763 -0.810302,-0.33349 -1.183514,-0.63287 -0.318105,-0.033 -0.263201,-0.39114 -0.547018,-0.66358 0.01705,-0.19481 -0.606985,-0.5876 -0.905423,-0.93179 -0.200157,-0.21239 0.08765,-0.41229 -0.126507,-0.69631 0.266395,-0.23487 -0.555829,-0.74189 -0.816152,-1.13596 -0.185739,-0.25984 -1.310367,-0.56717 -1.474665,-0.84036 -1.047668,-0.16927 -0.266804,0.35773 -0.338942,0.22454 -0.368835,0.14784 0.408655,-1.22864 0.233125,-1.76156 0.775895,-0.55417 0.961223,-0.34918 0.858129,-0.66287 1.000671,-0.23311 -0.267875,-1.05405 -0.520757,-1.59036 -0.01672,-0.32978 -0.222414,-0.60288 -0.378436,-0.90717 -0.07735,-0.29085 0.101764,-0.53727 -0.05072,-0.82903 0.222734,-0.30455 -0.621464,-0.55853 -0.832637,-0.91114 -0.376252,-0.10815 -0.444307,0.2159 -0.55327,-0.051 -0.31932,0.34905 -0.351452,-1.1711 -0.370723,-1.74975 -0.01341,-0.4026 -0.538127,-0.62887 -0.538127,-0.85954 l 0.0228,-1.35411 -0.0055,-0.97493 0.207951,-0.67055 0.02565,-0.89236 0.616418,-1.06486 -0.02449,-0.56919 0.407355,-1.25777 -0.03673,-1.43927 -0.12864,-0.88188 0.648847,-0.67065 -0.0795,-1.26044 -0.762824,-0.70224 -0.05141,-1.03379 0.06877,-1.11715 -0.239894,-0.9009 c 0,-0.33858 0.705735,-0.66545 0.726453,-0.99871 0.714486,-0.30067 -0.01065,-0.012 0.02416,-0.31679 0.0011,0.0961 0.703796,-0.82677 0.804466,-1.32466 0.630806,-0.13476 0.417734,-0.29321 0.497738,-0.60969 0.374037,-0.0239 0.04543,-0.80639 0.157987,-1.17151 -0.0655,-0.34606 -0.199444,-0.60793 -0.101805,-0.8829 -0.269044,-0.35653 -0.989304,-0.17819 -0.864883,-0.47696 -0.987631,-0.11464 0.602622,-0.878718 0.901663,-1.403197 0.281512,-0.09653 0.337093,-0.914401 0.52848,-1.206596 0.107906,-0.506447 0.265026,-0.493421 0.395936,-0.676248 0.174925,-0.343668 0.404028,-0.544997 0.575071,-0.759838 0.245081,-0.311784 0.614054,-0.387585 0.7899,-0.587552 0.444081,-0.164729 0.57268,0.02462 0.74656,-0.157505 0.472625,0.151947 0.58948,-0.557022 0.836324,-0.795308 0.298917,-0.24685 0.395734,-0.794766 0.589494,-0.969808 0.169023,-0.572162 0.229217,-0.920646 0.386125,-1.051794 0.074,-0.775273 -0.257743,-0.101388 -0.1,-0.218049 -0.151445,-0.157853 0.616751,-0.633808 1.084733,-0.870331 0.106916,-0.233159 0.57018,-0.291074 0.955828,-0.430029 0.197632,-0.082 0.561006,-0.832324 0.939873,-0.931794 0.189633,-0.684556 0.98829,-0.14682 1.359729,-0.183461 0.519362,-0.01988 0.329469,0.317495 0.565209,0.310488 0.216692,0.344506 0.427922,-0.0188 0.800176,-0.04135 0.08541,-0.01238 1.623255,-0.05669 2.070717,-0.08332 0.865223,-0.0083 0.246565,0.01013 0.306415,0.0059 0.492293,-0.03518 0.430633,-0.187575 0.940762,-0.187575 z"
       transform="matrix(1.0111788,0,0,1,2.3948238,1.5820933)" />
  </g>
</svg>
